<?xml version="1.0" standalone="no"?>
<!DOCTYPE svg PUBLIC "-//W3C//DTD SVG 20010904//EN"
 "http://www.w3.org/TR/2001/REC-SVG-20010904/DTD/svg10.dtd">
<svg version="1.0" xmlns="http://www.w3.org/2000/svg"
 width="118.000000pt" height="118.000000pt" viewBox="0 0 118.000000 118.000000"
 preserveAspectRatio="xMidYMid meet">
<metadata>
Created by potrace 1.14, written by Peter Selinger 2001-2017
</metadata>
<g transform="translate(0.000000,118.000000) scale(0.100000,-0.100000)"
fill="#000000" stroke="none">
<path d="M511 1065 c-106 -19 -194 -66 -272 -144 -77 -78 -122 -161 -140 -261
-34 -194 67 -391 247 -480 38 -19 75 -43 82 -52 6 -9 37 -22 68 -28 45 -10 59
-9 77 3 34 21 87 28 122 16 44 -16 82 -4 104 32 10 16 38 42 62 58 66 42 141
128 178 201 147 300 -53 632 -399 664 -30 2 -88 -2 -129 -9z"/>
</g>
</svg>
